<mxfile host="65bd71144e">
    <diagram id="qsWdjLXhYfynifRHrDlj" name="Page-1">
        <mxGraphModel dx="517" dy="1678" grid="1" gridSize="10" guides="1" tooltips="1" connect="1" arrows="1" fold="1" page="1" pageScale="1" pageWidth="1169" pageHeight="827" math="0" shadow="0">
            <root>
                <mxCell id="0"/>
                <mxCell id="1" parent="0"/>
                <mxCell id="42" value="" style="swimlane;startSize=0;fillColor=#d5e8d4;strokeColor=#82b366;sketch=1;" parent="1" vertex="1">
                    <mxGeometry x="490" y="-710" width="260" height="320" as="geometry"/>
                </mxCell>
                <mxCell id="96" value="&lt;b&gt;&lt;br&gt;Path&lt;br&gt;&lt;/b&gt;" style="html=1;dropTarget=0;verticalAlign=top;fillColor=#f5f5f5;strokeColor=#666666;sketch=0;fontColor=#333333;" parent="42" vertex="1">
                    <mxGeometry x="20" y="20" width="220" height="100" as="geometry"/>
                </mxCell>
                <mxCell id="97" value="" style="shape=module;jettyWidth=8;jettyHeight=4;sketch=0;" parent="96" vertex="1">
                    <mxGeometry x="1" width="20" height="20" relative="1" as="geometry">
                        <mxPoint x="-27" y="7" as="offset"/>
                    </mxGeometry>
                </mxCell>
                <mxCell id="98" value="0" style="html=1;dropTarget=0;verticalAlign=middle;sketch=0;fillColor=#f5f5f5;strokeColor=#666666;fontColor=#333333;" parent="42" vertex="1">
                    <mxGeometry x="40" y="70" width="30" height="30" as="geometry"/>
                </mxCell>
                <mxCell id="99" value="7" style="html=1;dropTarget=0;verticalAlign=middle;sketch=0;align=center;fillColor=#f5f5f5;strokeColor=#666666;fontColor=#333333;" parent="42" vertex="1">
                    <mxGeometry x="90" y="70" width="30" height="30" as="geometry"/>
                </mxCell>
                <mxCell id="100" value="0" style="html=1;dropTarget=0;verticalAlign=middle;sketch=0;align=center;fillColor=#f5f5f5;strokeColor=#666666;fontColor=#333333;" parent="42" vertex="1">
                    <mxGeometry x="140" y="70" width="30" height="30" as="geometry"/>
                </mxCell>
                <mxCell id="101" value="3" style="html=1;dropTarget=0;verticalAlign=middle;sketch=0;align=center;fillColor=#f5f5f5;strokeColor=#666666;fontColor=#333333;" parent="42" vertex="1">
                    <mxGeometry x="190" y="70" width="30" height="30" as="geometry"/>
                </mxCell>
                <mxCell id="102" value="/" style="text;html=1;align=center;verticalAlign=middle;resizable=0;points=[];autosize=1;strokeColor=#666666;fillColor=#f5f5f5;fontColor=#333333;" parent="42" vertex="1">
                    <mxGeometry x="70" y="75" width="20" height="20" as="geometry"/>
                </mxCell>
                <mxCell id="103" value="/" style="text;html=1;align=center;verticalAlign=middle;resizable=0;points=[];autosize=1;strokeColor=#666666;fillColor=#f5f5f5;fontColor=#333333;" parent="42" vertex="1">
                    <mxGeometry x="120" y="75" width="20" height="20" as="geometry"/>
                </mxCell>
                <mxCell id="104" value="/" style="text;html=1;align=center;verticalAlign=middle;resizable=0;points=[];autosize=1;strokeColor=#666666;fillColor=#f5f5f5;fontColor=#333333;" parent="42" vertex="1">
                    <mxGeometry x="170" y="75" width="20" height="20" as="geometry"/>
                </mxCell>
                <mxCell id="126" value="&lt;b&gt;&lt;br&gt;Bytes&lt;br&gt;&lt;/b&gt;" style="html=1;dropTarget=0;verticalAlign=top;fillColor=#e1d5e7;strokeColor=#9673a6;sketch=0;" parent="42" vertex="1">
                    <mxGeometry x="20" y="140" width="220" height="100" as="geometry"/>
                </mxCell>
                <mxCell id="127" value="" style="shape=module;jettyWidth=8;jettyHeight=4;sketch=0;" parent="126" vertex="1">
                    <mxGeometry x="1" width="20" height="20" relative="1" as="geometry">
                        <mxPoint x="-27" y="7" as="offset"/>
                    </mxGeometry>
                </mxCell>
                <mxCell id="132" value="/" style="text;html=1;align=center;verticalAlign=middle;resizable=0;points=[];autosize=1;strokeColor=#9673a6;fillColor=#e1d5e7;" parent="42" vertex="1">
                    <mxGeometry x="70" y="195" width="20" height="20" as="geometry"/>
                </mxCell>
                <mxCell id="133" value="/" style="text;html=1;align=center;verticalAlign=middle;resizable=0;points=[];autosize=1;strokeColor=#9673a6;fillColor=#e1d5e7;" parent="42" vertex="1">
                    <mxGeometry x="120" y="195" width="20" height="20" as="geometry"/>
                </mxCell>
                <mxCell id="134" value="/" style="text;html=1;align=center;verticalAlign=middle;resizable=0;points=[];autosize=1;strokeColor=#9673a6;fillColor=#e1d5e7;" parent="42" vertex="1">
                    <mxGeometry x="170" y="195" width="20" height="20" as="geometry"/>
                </mxCell>
                <mxCell id="135" value="4" style="html=1;dropTarget=0;verticalAlign=middle;sketch=0;fillColor=#e1d5e7;strokeColor=#9673a6;" parent="42" vertex="1">
                    <mxGeometry x="40" y="190" width="30" height="30" as="geometry"/>
                </mxCell>
                <mxCell id="136" value="4" style="html=1;dropTarget=0;verticalAlign=middle;sketch=0;align=center;fillColor=#e1d5e7;strokeColor=#9673a6;" parent="42" vertex="1">
                    <mxGeometry x="90" y="190" width="30" height="30" as="geometry"/>
                </mxCell>
                <mxCell id="137" value="4" style="html=1;dropTarget=0;verticalAlign=middle;sketch=0;align=center;fillColor=#e1d5e7;strokeColor=#9673a6;" parent="42" vertex="1">
                    <mxGeometry x="140" y="190" width="30" height="30" as="geometry"/>
                </mxCell>
                <mxCell id="138" value="4" style="html=1;dropTarget=0;verticalAlign=middle;sketch=0;align=center;fillColor=#e1d5e7;strokeColor=#9673a6;" parent="42" vertex="1">
                    <mxGeometry x="190" y="190" width="30" height="30" as="geometry"/>
                </mxCell>
                <mxCell id="140" value="&lt;font style=&quot;font-size: 24px&quot;&gt;= 16 Bytes&lt;/font&gt;" style="text;html=1;align=center;verticalAlign=middle;resizable=0;points=[];autosize=1;strokeColor=none;fillColor=none;" parent="42" vertex="1">
                    <mxGeometry x="65" y="270" width="130" height="20" as="geometry"/>
                </mxCell>
                <mxCell id="44" value="" style="swimlane;startSize=0;fillColor=#f8cecc;strokeColor=#b85450;sketch=1;" parent="1" vertex="1">
                    <mxGeometry x="60" y="-710" width="390" height="320" as="geometry"/>
                </mxCell>
                <mxCell id="80" value="&lt;b&gt;&lt;br&gt;Path&lt;br&gt;&lt;/b&gt;" style="html=1;dropTarget=0;verticalAlign=top;fillColor=#f5f5f5;strokeColor=#666666;sketch=0;fontColor=#333333;" parent="44" vertex="1">
                    <mxGeometry x="20" y="20" width="350" height="100" as="geometry"/>
                </mxCell>
                <mxCell id="81" value="" style="shape=module;jettyWidth=8;jettyHeight=4;sketch=0;" parent="80" vertex="1">
                    <mxGeometry x="1" width="20" height="20" relative="1" as="geometry">
                        <mxPoint x="-27" y="7" as="offset"/>
                    </mxGeometry>
                </mxCell>
                <mxCell id="82" value="sys" style="html=1;dropTarget=0;verticalAlign=middle;sketch=0;fillColor=#f5f5f5;strokeColor=#666666;fontColor=#333333;" parent="44" vertex="1">
                    <mxGeometry x="40" y="70" width="40" height="30" as="geometry"/>
                </mxCell>
                <mxCell id="84" value="ieee_802_15_4" style="html=1;dropTarget=0;verticalAlign=middle;sketch=0;align=center;fillColor=#f5f5f5;strokeColor=#666666;fontColor=#333333;" parent="44" vertex="1">
                    <mxGeometry x="100" y="70" width="100" height="30" as="geometry"/>
                </mxCell>
                <mxCell id="85" value="cca_mode" style="html=1;dropTarget=0;verticalAlign=middle;sketch=0;align=center;fillColor=#f5f5f5;strokeColor=#666666;fontColor=#333333;" parent="44" vertex="1">
                    <mxGeometry x="270" y="70" width="80" height="30" as="geometry"/>
                </mxCell>
                <mxCell id="87" value="/" style="text;html=1;align=center;verticalAlign=middle;resizable=0;points=[];autosize=1;strokeColor=#666666;fillColor=#f5f5f5;fontColor=#333333;" parent="44" vertex="1">
                    <mxGeometry x="80" y="75" width="20" height="20" as="geometry"/>
                </mxCell>
                <mxCell id="94" value="/" style="text;html=1;align=center;verticalAlign=middle;resizable=0;points=[];autosize=1;strokeColor=#666666;fillColor=#f5f5f5;fontColor=#333333;" parent="44" vertex="1">
                    <mxGeometry x="250" y="75" width="20" height="20" as="geometry"/>
                </mxCell>
                <mxCell id="113" value="&lt;b&gt;&lt;br&gt;Bytes&lt;br&gt;&lt;/b&gt;" style="html=1;dropTarget=0;verticalAlign=top;fillColor=#e1d5e7;strokeColor=#9673a6;sketch=0;" parent="44" vertex="1">
                    <mxGeometry x="20" y="140" width="350" height="100" as="geometry"/>
                </mxCell>
                <mxCell id="114" value="" style="shape=module;jettyWidth=8;jettyHeight=4;sketch=0;" parent="113" vertex="1">
                    <mxGeometry x="1" width="20" height="20" relative="1" as="geometry">
                        <mxPoint x="-27" y="7" as="offset"/>
                    </mxGeometry>
                </mxCell>
                <mxCell id="119" value="/" style="text;html=1;align=center;verticalAlign=middle;resizable=0;points=[];autosize=1;strokeColor=#9673a6;fillColor=#e1d5e7;" parent="44" vertex="1">
                    <mxGeometry x="80" y="195" width="20" height="20" as="geometry"/>
                </mxCell>
                <mxCell id="120" value="/" style="text;html=1;align=center;verticalAlign=middle;resizable=0;points=[];autosize=1;strokeColor=#9673a6;fillColor=#e1d5e7;" parent="44" vertex="1">
                    <mxGeometry x="200" y="195" width="20" height="20" as="geometry"/>
                </mxCell>
                <mxCell id="121" value="/" style="text;html=1;align=center;verticalAlign=middle;resizable=0;points=[];autosize=1;strokeColor=#9673a6;fillColor=#e1d5e7;" parent="44" vertex="1">
                    <mxGeometry x="250" y="195" width="20" height="20" as="geometry"/>
                </mxCell>
                <mxCell id="122" value="3" style="html=1;dropTarget=0;verticalAlign=middle;sketch=0;fillColor=#e1d5e7;strokeColor=#9673a6;" parent="44" vertex="1">
                    <mxGeometry x="40" y="190" width="40" height="30" as="geometry"/>
                </mxCell>
                <mxCell id="123" value="13" style="html=1;dropTarget=0;verticalAlign=middle;sketch=0;align=center;fillColor=#e1d5e7;strokeColor=#9673a6;" parent="44" vertex="1">
                    <mxGeometry x="100" y="190" width="100" height="30" as="geometry"/>
                </mxCell>
                <mxCell id="124" value="1" style="html=1;dropTarget=0;verticalAlign=middle;sketch=0;align=center;fillColor=#e1d5e7;strokeColor=#9673a6;" parent="44" vertex="1">
                    <mxGeometry x="220" y="190" width="30" height="30" as="geometry"/>
                </mxCell>
                <mxCell id="139" value="&lt;font style=&quot;font-size: 24px&quot;&gt;= 25 Bytes&lt;/font&gt;" style="text;html=1;align=center;verticalAlign=middle;resizable=0;points=[];autosize=1;strokeColor=none;fillColor=none;" parent="44" vertex="1">
                    <mxGeometry x="130" y="270" width="130" height="20" as="geometry"/>
                </mxCell>
                <mxCell id="142" value="/" style="text;html=1;align=center;verticalAlign=middle;resizable=0;points=[];autosize=1;strokeColor=#666666;fillColor=#f5f5f5;fontColor=#333333;" parent="44" vertex="1">
                    <mxGeometry x="200" y="75" width="20" height="20" as="geometry"/>
                </mxCell>
                <mxCell id="145" value="0" style="html=1;dropTarget=0;verticalAlign=middle;sketch=0;align=center;fillColor=#f5f5f5;strokeColor=#666666;fontColor=#333333;" parent="44" vertex="1">
                    <mxGeometry x="220" y="70" width="30" height="30" as="geometry"/>
                </mxCell>
                <mxCell id="148" value="8" style="html=1;dropTarget=0;verticalAlign=middle;sketch=0;align=center;fillColor=#e1d5e7;strokeColor=#9673a6;" parent="44" vertex="1">
                    <mxGeometry x="270" y="190" width="80" height="30" as="geometry"/>
                </mxCell>
                <mxCell id="46" value="String path" style="text;html=1;align=left;verticalAlign=middle;resizable=0;points=[];autosize=1;strokeColor=none;fillColor=none;sketch=0;" parent="1" vertex="1">
                    <mxGeometry x="60" y="-730" width="70" height="20" as="geometry"/>
                </mxCell>
                <mxCell id="47" value="Integer path" style="text;html=1;align=left;verticalAlign=middle;resizable=0;points=[];autosize=1;strokeColor=none;fillColor=none;sketch=0;" parent="1" vertex="1">
                    <mxGeometry x="490" y="-730" width="80" height="20" as="geometry"/>
                </mxCell>
            </root>
        </mxGraphModel>
    </diagram>
</mxfile>